<svg class="svg-icon" style="width: 1em;height: 1em;vertical-align: middle;fill: currentColor;overflow: hidden;" viewBox="0 0 1024 1024" version="1.1" xmlns="http://www.w3.org/2000/svg"><path d="M925.446 529.271s-10.416-86.904-175.276-39.104c-54.707 4.15-58.25-37.4-58.25-37.4s168.907-97.928 95.448-206.963c-73.466-109.036-201.812-75.665-312.105-69.443-110.293 6.222-256.745 87.768-295.717 114.301C140.57 317.197-9.239 425.718 32.031 616.938c41.262 191.219 326.7 248.789 326.7 248.789s226.826 66.594 427.728-30.573c200.904-97.164 138.987-305.883 138.987-305.883z m-349.467-73.18c-30.914 0-55.979-23.055-55.979-51.477 0-28.43 25.064-51.484 55.979-51.484 30.908 0 56.021 23.069 56.021 51.499 0 28.43-25.113 51.477-56.021 51.477v-0.015z m-6.315 0" fill="#F2B29E" /><path d="M858.303 407.457s-17.695-15.137-32.391-17.897c-14.697-2.75-312.929 484.247-312.929 484.247s4.964 5.25 7.759-3.175c2.805-8.437 322.623-424.103 337.561-463.175z m0 0" fill="#6B7FB3" /><path d="M920.041 315.557l-16.988-20.81-81.709 98.222s30.691 18.162 34.107 20.15c3.263-3.051 64.59-97.562 64.59-97.562z m0 0" fill="#C1C1C1" /><path d="M1016.352 106.093s-50.652 67.471-79.541 87.21c-28.896 19.744-61.489 43.109-40.756 95.292-0.39 13.71 22.059 29.176 22.059 29.176s58.049 3.177 87.589-99.396c-0.001 0 16.484-43.576 10.649-112.282z m0 0" fill="#2C6DB6" /><path d="M318.744 349.393c0 28.694 23.256 51.959 51.951 51.959 28.701 0 51.958-23.265 51.958-51.959 0-28.694-23.257-51.958-51.958-51.958-28.695 0.001-51.951 23.264-51.951 51.958z m0 0" fill="#E37831" /><path d="M311.376 708.774c0 35.521 28.803 64.318 64.318 64.318 35.52 0 64.324-28.797 64.324-64.318s-28.804-64.317-64.324-64.317c-35.514 0-64.318 28.797-64.318 64.317z m0 0" fill="#3DA3CD" /><path d="M168.468 543.508c0 28.695 23.256 51.96 51.95 51.96 28.701 0 51.958-23.265 51.958-51.96 0-28.693-23.257-51.957-51.958-51.957-28.694 0-51.95 23.263-51.95 51.957z m0 0" fill="#61A647" /></svg>