<svg class="svg-icon" style="width: 1em; height: 1em;vertical-align: middle;fill: currentColor;overflow: hidden;" viewBox="0 0 1024 1024" version="1.1" xmlns="http://www.w3.org/2000/svg"><path d="M698.8 872.7H268.2c-16.6 0-30-13.4-30-30V232.4c0-16.6 13.4-30 30-30h430.6c16.6 0 30 13.4 30 30v610.3c0 16.5-13.4 30-30 30z" fill="#F48134" /><path d="M675.4 232.4v610.3H200.9V232.4h474.5m28-30H172.9c-1.1 0-2 0.9-2 2v666.3c0 1.1 0.9 2 2 2h530.5c1.1 0 2-0.9 2-2V204.4c0-1.1-0.9-2-2-2z" fill="#6D7677" /><path d="M689.1 147.5v55.6h-517v-55.6h517m0-30h-517c-16.6 0-30 13.4-30 30v55.6c0 16.6 13.4 30 30 30h517c16.6 0 30-13.4 30-30v-55.6c0-16.5-13.4-30-30-30z" fill="#6D7677" /><path d="M494 90.6v27.6H367.3V90.6H494m0-30H367.3c-16.6 0-30 13.4-30 30v27.6c0 16.6 13.4 30 30 30H494c16.6 0 30-13.4 30-30V90.6c0-16.5-13.5-30-30-30zM689.1 873.1v54.4h-517v-54.4h517m0-30h-517c-16.6 0-30 13.4-30 30v54.4c0 16.6 13.4 30 30 30h517c16.6 0 30-13.4 30-30v-54.4c0-16.6-13.4-30-30-30z" fill="#6D7677" /><path d="M790.9 787.8H296.8v-509H791c49.7 0 90 40.3 90 90v329.1c-0.1 49.6-40.4 89.9-90.1 89.9z" fill="#4C4C4C" /><path d="M371.3 353.6v-30.9c0-5.5 4.5-10 10-10h13.9c5.5 0 10 4.5 10 10v30.9c0 5.5-4.5 10-10 10h-13.9c-5.5 0-10-4.5-10-10zM447.6 353.6v-30.9c0-5.5 4.5-10 10-10h13.9c5.5 0 10 4.5 10 10v30.9c0 5.5-4.5 10-10 10h-13.9c-5.5 0-10-4.5-10-10zM524 353.6v-30.9c0-5.5 4.5-10 10-10h13.9c5.5 0 10 4.5 10 10v30.9c0 5.5-4.5 10-10 10H534c-5.5 0-10-4.5-10-10zM600.3 353.6v-30.9c0-5.5 4.5-10 10-10h13.9c5.5 0 10 4.5 10 10v30.9c0 5.5-4.5 10-10 10h-13.9c-5.5 0-10-4.5-10-10zM676.7 353.6v-30.9c0-5.5 4.5-10 10-10h13.9c5.5 0 10 4.5 10 10v30.9c0 5.5-4.5 10-10 10h-13.9c-5.5 0-10-4.5-10-10zM753.1 353.6v-30.9c0-5.5 4.5-10 10-10H777c5.5 0 10 4.5 10 10v30.9c0 5.5-4.5 10-10 10h-13.9c-5.5 0-10-4.5-10-10zM371.3 743.9V713c0-5.5 4.5-10 10-10h13.9c5.5 0 10 4.5 10 10v30.9c0 5.5-4.5 10-10 10h-13.9c-5.5 0-10-4.5-10-10zM447.6 743.9V713c0-5.5 4.5-10 10-10h13.9c5.5 0 10 4.5 10 10v30.9c0 5.5-4.5 10-10 10h-13.9c-5.5 0-10-4.5-10-10zM524 743.9V713c0-5.5 4.5-10 10-10h13.9c5.5 0 10 4.5 10 10v30.9c0 5.5-4.5 10-10 10H534c-5.5 0-10-4.5-10-10zM600.3 743.9V713c0-5.5 4.5-10 10-10h13.9c5.5 0 10 4.5 10 10v30.9c0 5.5-4.5 10-10 10h-13.9c-5.5 0-10-4.5-10-10zM676.7 743.9V713c0-5.5 4.5-10 10-10h13.9c5.5 0 10 4.5 10 10v30.9c0 5.5-4.5 10-10 10h-13.9c-5.5 0-10-4.5-10-10zM753.1 743.9V713c0-5.5 4.5-10 10-10H777c5.5 0 10 4.5 10 10v30.9c0 5.5-4.5 10-10 10h-13.9c-5.5 0-10-4.5-10-10z" fill="#FFFFFF" /></svg>