<svg class="svg-icon" style="width: 1em;height: 1em;vertical-align: middle;fill: currentColor;overflow: hidden;" viewBox="0 0 1024 1024" version="1.1" xmlns="http://www.w3.org/2000/svg"><path d="M992 992H32l32-128h896zM32 288l480-256 480 256z" fill="#E0EBFE" /><path d="M992 320h0.64a32 32 0 0 0 11.008-62.08L527.04 3.808a31.936 31.936 0 0 0-30.144 0l-480 256A32 32 0 0 0 32 320h64v512H64a32 32 0 0 0-31.04 24.224l-32 128A32 32 0 0 0 32 1024h960.64a32 32 0 0 0 28.896-45.76l-30.496-122.016A32 32 0 0 0 960 832h-32V320h64zM512 68.256L864 256H160l352-187.744zM864 320v512h-128V320h128z m-192 0v512h-128V320h128z m-192 0v512h-128V320h128zM160 320h128v512H160V320z m775.04 576l16 64H72.96l16-64h846.08z" fill="#5465CF" /></svg>