<svg class="svg-icon" style="width: 1em;height: 1em;vertical-align: middle;fill: currentColor;overflow: hidden;" viewBox="0 0 1024 1024" version="1.1" xmlns="http://www.w3.org/2000/svg"><path d="M512 512m-495.583166 0a495.583166 495.583166 0 1 0 991.166332 0 495.583166 495.583166 0 1 0-991.166332 0Z" fill="#D59758" /><path d="M512 1024C229.679711 1024 0 794.316184 0 512 0 229.679711 229.679711 0 512 0 794.316184 0 1024 229.679711 1024 512c0 282.316184-229.683816 512-512 512z m0-991.166333C247.787479 32.833667 32.833667 247.787479 32.833667 512S247.787479 991.166333 512 991.166333 991.166333 776.212521 991.166333 512 776.212521 32.833667 512 32.833667z" fill="#5A1C1C" /><path d="M675.154597 994.535888a18.399166 18.399166 0 0 1-6.907383-1.346181c-154.113026-62.232112-284.852585-217.970405-388.586452-462.901354-119.97422-283.260152-13.022653-457.290902-8.409524-464.563559a18.468938 18.468938 0 0 1 31.18788 19.786388c-0.225731 0.36117-25.622573 41.567423-36.868104 114.774189-10.387752 67.633251-10.478044 177.289491 48.101323 315.59721 99.769202 235.565146 223.716297 384.6341 368.401956 443.053403a18.468938 18.468938 0 0 1-6.919696 35.599904z" fill="#5A1C1C" /><path d="M991.987174 644.393555a18.468938 18.468938 0 0 1-18.468938-18.468938c0-37.430381-10.428794-368.644104-371.59503-470.436681-143.28202-40.377202-277.789242-16.174685-399.778629 71.942669C110.628938 293.53709 61.349707 372.079327 60.865411 372.86323a18.473042 18.473042 0 0 1-31.397195-19.462156c2.146501-3.459848 53.670733-85.57685 151.047183-155.914773 90.469066-65.347206 238.762325-131.843591 431.430284-77.553123C999.276248 229.101018 1010.456112 585.629499 1010.456112 625.924617a18.468938 18.468938 0 0 1-18.468938 18.468938z" fill="#5A1C1C" /><path d="M426.271295 1013.870814a18.390958 18.390958 0 0 1-8.836361-2.265523c-167.529683-91.499222-309.063311-342.130918-309.063311-547.304401 0-213.30392 124.632497-257.740184 129.939239-259.525515 0.324232-0.106709 0.652569-0.209315 0.980906-0.299607 2.577443-0.714132 64.251383-17.237675 151.469915 1.982332 79.555976 17.533178 196.706501 69.533499 303.02602 217.687215 202.497539 282.172537 137.581275 476.933643 134.720642 485.088705a18.460729 18.460729 0 0 1-23.545844 11.307094 18.473042 18.473042 0 0 1-11.327615-23.48428c0.184689-0.537651 15.546741-46.63612 7.36295-124.681748-7.588681-72.38182-37.553507-187.812681-137.224209-326.69499-184.947944-257.715559-401.695295-208.813916-414.114629-205.735759-8.298709 3.135615-104.353603 43.402004-104.353603 224.360657 0 93.805788 31.298693 200.351038 88.137876 300.017635 55.115415 96.6459 128.629996 174.962405 201.697218 214.871728a18.468938 18.468938 0 0 1-8.869194 34.676457z" fill="#5A1C1C" /></svg>